<svg width="1200" height="700" viewBox="0 0 1200 700" fill="none" xmlns="http://www.w3.org/2000/svg">
  <defs>
    <linearGradient id="bg" x1="96" y1="40" x2="1100" y2="680" gradientUnits="userSpaceOnUse">
      <stop stop-color="#DBEAFE"/>
      <stop offset="1" stop-color="#BFDBFE"/>
    </linearGradient>
    <linearGradient id="card" x1="250" y1="160" x2="950" y2="560" gradientUnits="userSpaceOnUse">
      <stop stop-color="#FFFFFF" stop-opacity="0.96"/>
      <stop offset="1" stop-color="#EFF6FF" stop-opacity="0.95"/>
    </linearGradient>
  </defs>

  <rect x="0" y="0" width="1200" height="700" fill="url(#bg)"/>

  <circle cx="220" cy="120" r="110" fill="#93C5FD" fill-opacity="0.45"/>
  <circle cx="1010" cy="610" r="150" fill="#60A5FA" fill-opacity="0.32"/>
  <circle cx="980" cy="130" r="70" fill="#2563EB" fill-opacity="0.24"/>

  <rect x="200" y="150" width="800" height="420" rx="30" fill="url(#card)" stroke="#93C5FD" stroke-width="3"/>

  <rect x="260" y="220" width="270" height="18" rx="9" fill="#BFDBFE"/>
  <rect x="260" y="260" width="630" height="16" rx="8" fill="#DBEAFE"/>
  <rect x="260" y="290" width="550" height="16" rx="8" fill="#DBEAFE"/>

  <rect x="260" y="350" width="300" height="145" rx="16" fill="#E0ECFF" stroke="#BFDBFE"/>
  <rect x="585" y="350" width="305" height="145" rx="16" fill="#E0ECFF" stroke="#BFDBFE"/>

  <rect x="290" y="380" width="170" height="18" rx="9" fill="#93C5FD"/>
  <rect x="290" y="412" width="130" height="14" rx="7" fill="#BFDBFE"/>

  <rect x="615" y="380" width="190" height="18" rx="9" fill="#60A5FA"/>
  <rect x="615" y="412" width="145" height="14" rx="7" fill="#BFDBFE"/>

  <rect x="260" y="525" width="630" height="20" rx="10" fill="#DBEAFE"/>
</svg>
